<?xml version="1.0" encoding="UTF-8"?>
<svg id="Layer_2" data-name="Layer 2" xmlns="http://www.w3.org/2000/svg" viewBox="0 0 380.61 396.87">
  <defs>
    <style>
      .cls-1 {
        fill: #004f9f;
      }
    </style>
  </defs>
  <g id="Eisberg">
    <path class="cls-1" d="M36.09,76.54c-4.32,3.41-8.72,6.88-13.09,10.34-.84-.53-.87-1.32-1.04-2.04C15.75,59.27,9.53,33.7,3.36,8.12,2.68,5.31,1.02,2.94,0,0H380.32c.47,.74,.3,1.53-.07,2.19-2.58,4.49-3.27,9.56-4.47,14.46-5.54,22.68-11.04,45.36-16.55,68.05-.18,.75-.27,1.52-.98,2.25-4.38-3.46-8.78-6.93-13.11-10.35-1.21,.29-1.24,1.34-1.59,2.07-5.97,12.28-11.9,24.59-17.83,36.89-1.45,3.01-1.95,6.31-2.73,9.51-5.85,23.85-11.63,47.72-17.43,71.58-.21,.85-.47,1.68-.82,2.89-4.72-3.71-9.25-7.28-13.99-11.01-1.63,3.35-3.12,6.38-4.59,9.42-7.68,15.98-15.35,31.97-23.04,47.95-.58,1.2-.99,2.43-1.31,3.73-5.76,23.65-11.53,47.29-17.3,70.94-.08,.31-.24,.59-.54,1.29-4.33-2.95-7.98-6.59-12.5-9.8-13.62,28.2-27.19,56.27-40.98,84.82-13.73-28.53-27.24-56.6-40.86-84.9-4.19,3.37-8.19,6.59-12.54,10.1-1.07-4.24-2.06-8.03-2.99-11.83-4.91-20.11-9.83-40.21-14.69-60.34-.47-1.96-1.25-3.76-2.1-5.54-8.43-17.58-16.87-35.16-25.37-52.71-1.66-3.42-1.15-3.53-4.45-.91-3.62,2.87-7.21,5.77-10.84,8.68-1.1-1.52-1.15-3.12-1.51-4.6-6.06-24.7-12.09-49.42-18.03-74.15-.71-2.94-1.99-5.58-3.27-8.26-5.51-11.53-11.04-23.05-16.55-34.57-.24-.5-.44-1.02-1.2-1.32Z"/>
  </g>
</svg>