<?xml version="1.0" encoding="UTF-8"?>
<svg id="Layer_2" data-name="Layer 2" xmlns="http://www.w3.org/2000/svg" xmlns:xlink="http://www.w3.org/1999/xlink" viewBox="0 0 59.23 59.23">
  <defs>
    <style>
      .cls-1 {
        fill: #fff;
      }

      .cls-2 {
        clip-path: url(#clippath);
      }

      .cls-3 {
        fill: none;
      }

      .cls-4 {
        fill: #004f9b;
      }
    </style>
    <clipPath id="clippath">
      <rect class="cls-3" x="0" width="59.23" height="59.23"/>
    </clipPath>
  </defs>
  <g id="Icons">
    <g class="cls-2">
      <path class="cls-1" d="M29.61,59.23c16.35,0,29.61-13.26,29.61-29.61S45.97,0,29.61,0,0,13.26,0,29.61s13.26,29.61,29.61,29.61"/>
      <path class="cls-4" d="M47.93,22.46h-1.29c-.71,0-1.29-.58-1.3-1.29v-3.34l1.45,1.45c.73,.73,1.14,1.72,1.14,2.75v.44Zm-18.13,15.54c0,.72-.58,1.29-1.29,1.29s-1.3-.58-1.3-1.29v-7.77c0-.72,.58-1.29,1.3-1.29s1.29,.58,1.29,1.29v7.77Zm18.83-20.56l-6.25-6.25c-.51-.5-1.33-.5-1.84,0-.5,.51-.51,1.33,0,1.84l2.21,2.21v5.93c0,2.14,1.74,3.88,3.88,3.88h1.29v14.24c0,1.43-1.16,2.59-2.59,2.59s-2.59-1.16-2.59-2.59v-3.88c0-1.37-.55-2.69-1.52-3.66-.97-.97-2.29-1.52-3.66-1.52h-2.59v-5.18H14.26v19.42h-1.3c-.72,0-1.29,.58-1.29,1.29s.58,1.3,1.29,1.3h23.31c.72,0,1.29-.58,1.29-1.3s-.58-1.29-1.29-1.29h-1.29v-11.65h2.59c1.43,0,2.59,1.16,2.59,2.59v3.88c0,2.86,2.32,5.18,5.18,5.18s5.18-2.32,5.18-5.18V22.02c0-1.72-.68-3.37-1.89-4.58h0Zm-20.12-.16h-7.77c-.72,0-1.29-.58-1.29-1.29s.58-1.29,1.29-1.29h7.77c.72,0,1.3,.58,1.3,1.29s-.58,1.29-1.3,1.29m6.47-5.18c0-2.14-1.74-3.88-3.88-3.88h-12.95c-2.14,0-3.88,1.74-3.88,3.88v10.36h20.72V12.1Z"/>
    </g>
  </g>
</svg>