<?xml version="1.0" encoding="UTF-8"?>
<svg id="Layer_2" data-name="Layer 2" xmlns="http://www.w3.org/2000/svg" xmlns:xlink="http://www.w3.org/1999/xlink" viewBox="0 0 59.23 59.23">
  <defs>
    <style>
      .cls-1 {
        fill: #fff;
      }

      .cls-2 {
        fill: #004f97;
      }

      .cls-3 {
        clip-path: url(#clippath);
      }

      .cls-4 {
        fill: none;
      }
    </style>
    <clipPath id="clippath">
      <rect class="cls-4" x="0" width="59.23" height="59.23"/>
    </clipPath>
  </defs>
  <g id="Icons">
    <g class="cls-3">
      <path class="cls-1" d="M29.61,59.23c16.35,0,29.61-13.26,29.61-29.61S45.97,0,29.61,0,0,13.26,0,29.61s13.26,29.61,29.61,29.61"/>
      <path class="cls-2" d="M36.31,13.44c-.25-.1-.52-.21-.81-.31-.26-.09-.47-.32-.53-.61l-1.54-7.21h-7.64l-1.53,7.18c-.05,.28-.25,.53-.54,.64-.28,.1-.56,.21-.81,.31-.27,.11-.53,.23-.8,.35-.25,.12-.55,.11-.8-.05l-6.19-4.01-5.41,5.41,3.99,6.15c.17,.24,.22,.56,.08,.84l-.35,.8c-.1,.25-.21,.52-.31,.81-.09,.26-.32,.47-.61,.53l-7.21,1.54v7.64l7.21,1.54c.27,.06,.51,.25,.61,.53l.31,.81c.11,.26,.23,.53,.35,.79,.12,.25,.11,.55-.05,.8l-4.01,6.19,5.41,5.41,6.15-3.99c.24-.17,.56-.22,.84-.08,.28,.13,.55,.25,.8,.35,.23,.1,.5,.2,.8,.31,.26,.09,.47,.32,.53,.61l1.54,7.22h7.64l1.53-7.19c.05-.28,.25-.53,.54-.64,.3-.11,.57-.21,.8-.31,.25-.1,.52-.22,.8-.35,.25-.12,.55-.11,.8,.05l6.19,4.02,5.41-5.41-3.99-6.15c-.17-.24-.22-.56-.08-.84,.12-.26,.24-.53,.35-.79,.11-.26,.21-.51,.3-.76,.08-.29,.31-.52,.62-.59l7.21-1.54v-7.64l-7.21-1.54c-.27-.06-.51-.25-.61-.53l-.31-.8c-.11-.27-.23-.53-.36-.8-.12-.25-.11-.55,.06-.8l4.01-6.19-5.41-5.41-6.14,3.98c-.24,.18-.57,.23-.86,.09l-.79-.35h0Zm.95,26.98c.61-.43,1.18-.92,1.72-1.45,.53-.53,1.01-1.1,1.45-1.72l-3.45-3.45c-.22-.23-.31-.58-.18-.9,.53-1.31,.66-2.74,.39-4.11-.27-1.32-.92-2.59-1.94-3.62-1.11-1.11-2.49-1.78-3.93-2-1.09-.17-2.22-.08-3.29,.26l4.48,4.48c.32,.32,.32,.85,0,1.17l-3.42,3.42c-.32,.32-.85,.32-1.17,0l-4.48-4.48c-.34,1.06-.43,2.19-.26,3.29,.22,1.43,.89,2.81,2,3.92,1.03,1.03,2.3,1.68,3.62,1.95,1.35,.27,2.76,.15,4.04-.36,.31-.16,.7-.11,.96,.15l3.45,3.45h0Zm1.71-20.16c-2.39-2.39-5.7-3.88-9.36-3.88s-6.96,1.48-9.36,3.88c-2.39,2.39-3.88,5.7-3.88,9.36s1.47,6.93,3.86,9.34c2.41,2.41,5.72,3.9,9.38,3.9,2.24,0,4.35-.56,6.19-1.53l-2.8-2.8c-1.46,.49-3.03,.59-4.53,.28-1.64-.33-3.2-1.13-4.47-2.39-1.36-1.36-2.18-3.07-2.46-4.84-.28-1.82,0-3.71,.87-5.38,.21-.4,.71-.56,1.11-.36,.08,.04,.15,.09,.21,.15l4.76,4.76,2.25-2.25-4.76-4.76c-.32-.32-.32-.85,0-1.17,.08-.08,.17-.14,.26-.18,1.65-.84,3.52-1.12,5.32-.84,1.77,.28,3.48,1.1,4.84,2.46,1.27,1.27,2.07,2.83,2.4,4.47,.3,1.5,.21,3.07-.28,4.53l2.8,2.8c.98-1.85,1.53-3.96,1.53-6.19,0-3.65-1.48-6.96-3.88-9.36h0Zm-9.36-5.53c4.11,0,7.83,1.67,10.53,4.36,2.7,2.69,4.36,6.42,4.36,10.53,0,2.92-.84,5.64-2.3,7.94-.02,.03-.03,.05-.05,.08-.58,.91-1.26,1.75-2.02,2.5-.76,.76-1.6,1.44-2.5,2.02-.03,.02-.06,.04-.08,.05-2.3,1.45-5.02,2.29-7.94,2.29-4.11,0-7.84-1.67-10.53-4.36l-.04-.05c-2.67-2.69-4.32-6.39-4.32-10.48s1.67-7.84,4.36-10.53,6.42-4.36,10.53-4.36"/>
    </g>
  </g>
</svg>