<?xml version="1.0" encoding="UTF-8"?>
<svg id="Layer_2" data-name="Layer 2" xmlns="http://www.w3.org/2000/svg" xmlns:xlink="http://www.w3.org/1999/xlink" viewBox="0 0 59.23 59.23">
  <defs>
    <style>
      .cls-1 {
        fill: #fff;
      }

      .cls-2 {
        fill: #004f99;
      }

      .cls-3 {
        clip-path: url(#clippath);
      }

      .cls-4 {
        fill: none;
      }
    </style>
    <clipPath id="clippath">
      <rect class="cls-4" x="0" width="59.23" height="59.23"/>
    </clipPath>
  </defs>
  <g id="Icons">
    <g class="cls-3">
      <path class="cls-1" d="M29.61,59.23c16.35,0,29.61-13.26,29.61-29.61S45.97,0,29.61,0,0,13.26,0,29.61s13.26,29.61,29.61,29.61"/>
      <path class="cls-2" d="M22.72,29.52c-.31-.04-.63-.06-.96-.06-.87,0-1.61,.19-2.21,.56-.6,.38-1.06,.9-1.39,1.57h3.65v2.4h-4.24c-.01,.12-.02,.25-.02,.37v.37c0,.14,0,.27,.01,.4,0,.13,.02,.26,.03,.38h4.22v2.4h-3.46c.37,.6,.84,1.06,1.42,1.36s1.22,.46,1.95,.46c.57,0,1.2-.08,1.89-.24,.68-.16,1.31-.39,1.89-.71l.68,2.38c-.59,.34-1.24,.6-1.96,.77-.72,.17-1.55,.26-2.49,.26-1.8,0-3.28-.37-4.42-1.12-1.14-.74-1.94-1.8-2.41-3.17h-2.17v-2.4h1.72c-.01-.12-.02-.25-.02-.38v-.77c0-.12,0-.25,.02-.37h-1.72v-2.4h2.11c.44-1.48,1.23-2.61,2.38-3.4,1.15-.79,2.65-1.19,4.51-1.19,.14,0,.27,0,.4,.01-.15-.91-.23-1.85-.23-2.8,0-1.04,.1-2.05,.28-3.04-.51-.06-1.03-.09-1.56-.09-7.7,.01-13.93,6.25-13.95,13.95,.01,7.7,6.24,13.93,13.95,13.95,5.87-.01,10.88-3.64,12.94-8.77-5.09-1.63-9.12-5.62-10.8-10.68h0Z"/>
      <path class="cls-2" d="M39.87,20.77v2.4h-4.24c-.01,.12-.02,.25-.02,.37v.37c0,.14,0,.27,.01,.4,0,.13,.02,.26,.03,.38h4.22v2.4h-3.46c.37,.6,.84,1.06,1.41,1.36,.57,.31,1.22,.46,1.95,.46,.57,0,1.2-.08,1.89-.23,.68-.16,1.31-.39,1.89-.71l.68,2.38c-.59,.34-1.24,.6-1.96,.77-.72,.17-1.55,.26-2.49,.26-1.8,0-3.27-.37-4.42-1.12-1.14-.74-1.94-1.8-2.41-3.17h-2.17v-2.4h1.72c-.01-.12-.02-.25-.02-.38v-.77c0-.12,0-.25,.02-.37h-1.72v-2.4h2.11c.44-1.48,1.23-2.61,2.38-3.4,1.15-.79,2.65-1.19,4.51-1.19,.57,0,1.07,.03,1.48,.08,.42,.05,.8,.13,1.14,.23,.34,.08,.66,.19,.94,.32,.29,.13,.59,.27,.92,.42l-.72,2.38c-.61-.3-1.22-.53-1.81-.71-.59-.17-1.23-.26-1.9-.26-.87,0-1.61,.19-2.21,.56-.6,.38-1.06,.9-1.39,1.57h3.65Zm-1.22-10.51c-5.87,.01-10.88,3.64-12.94,8.77-.35,.87-.62,1.79-.78,2.75-.14,.79-.22,1.6-.22,2.43,.01,6.18,4.03,11.42,9.6,13.25,.89,.29,1.82,.5,2.79,.61,.51,.06,1.03,.09,1.56,.09,7.7-.01,13.93-6.24,13.95-13.95-.01-7.7-6.25-13.93-13.95-13.95h0Z"/>
    </g>
  </g>
</svg>