<?xml version="1.0" encoding="UTF-8"?>
<svg id="Layer_2" data-name="Layer 2" xmlns="http://www.w3.org/2000/svg" xmlns:xlink="http://www.w3.org/1999/xlink" viewBox="0 0 59.22 59.22">
  <defs>
    <style>
      .cls-1 {
        fill: #fff;
      }

      .cls-2 {
        fill: #004f9e;
      }

      .cls-3 {
        clip-path: url(#clippath);
      }

      .cls-4 {
        fill: none;
      }
    </style>
    <clipPath id="clippath">
      <rect class="cls-4" x="0" width="59.22" height="59.22"/>
    </clipPath>
  </defs>
  <g id="Icons">
    <g>
      <g class="cls-3">
        <path class="cls-1" d="M29.61,59.22c16.35,0,29.61-13.26,29.61-29.61S45.97,0,29.61,0,0,13.26,0,29.61s13.26,29.61,29.61,29.61"/>
        <path class="cls-2" d="M42.88,36.76c1.71,1.98,4.22,2.16,6.06,.75,1.83-1.4,2.25-3.84,.65-5.72-.28-.33-3.5-4.38-4.71-5.8-1.21-1.42-2.32-2.62-3.38-3.63-2.35-2.24-4.36-3.47-6.15-3.47H18.72c-1.23,0-5.74,9.5-5.45,9.85,.85,1.01,1.89,2.16,3.14,3.46,1.65,1.71,4.07,2.87,6.29,2.87h11.61c1.98-.03,3.64-1.4,4.1-3.24,1.69,1.8,3.18,3.44,4.47,4.94m-7.54-15.89c1.13,0,2.78,1.02,4.78,2.93,1.01,.96,2.08,2.12,3.24,3.48,1.18,1.39,4.4,5.43,4.71,5.8,.82,.97,.62,2.11-.34,2.86-1.02,.78-2.34,.69-3.34-.48-1.89-2.19-4.18-4.67-6.87-7.47-.88-.92-2.29,.34-1.48,1.32,.34,.41,.52,.92,.52,1.46,0,1.26-1.01,2.28-2.26,2.3h-11.6c-1.64,0-3.56-.91-4.86-2.26-1.47-1.52-2.64-2.83-3.52-3.92l3.66-6.02h17.35Z"/>
        <path class="cls-2" d="M6.36,28l5.16,2.98c.63,.37,1.44,.15,1.81-.48l6.95-12.03c.37-.63,.15-1.44-.48-1.81l-5.16-2.98c-.63-.37-1.44-.15-1.81,.48l-6.95,12.03c-.37,.63-.15,1.44,.48,1.81m7.85-12.27l4.01,2.32-6.29,10.89-4.01-2.32,6.29-10.89Z"/>
        <path class="cls-2" d="M27.31,33.08c-.55,0-.99,.44-.99,.99s.44,.99,.99,.99h6.92c2.37,0,4.3-1.93,4.3-4.3s-1.93-4.3-4.3-4.3h-6.62c-.55,0-.99,.44-.99,.99s.44,.99,.99,.99h6.62c1.28,0,2.32,1.04,2.32,2.32s-1.04,2.32-2.32,2.32h-6.92Z"/>
        <path class="cls-2" d="M31.01,49.29c-1.09-1.36-1.74-3.08-1.74-4.96,0-4.38,3.55-7.94,7.94-7.94s7.94,3.55,7.94,7.94c0,1.88-.65,3.6-1.74,4.96h-2.9c1.6-1.07,2.66-2.89,2.66-4.96,0-3.29-2.67-5.95-5.95-5.95s-5.95,2.67-5.95,5.95c0,2.07,1.06,3.9,2.66,4.96h-2.91Z"/>
      </g>
      <rect class="cls-2" x="28.28" y="48.63" width="17.86" height="1.98"/>
      <rect class="cls-2" x="47.46" y="11.57" width="1.98" height="13.23"/>
      <rect class="cls-2" x="43.49" y="11.57" width="1.98" height="7.28"/>
    </g>
  </g>
</svg>