<?xml version="1.0" encoding="UTF-8"?>
<svg id="Layer_2" data-name="Layer 2" xmlns="http://www.w3.org/2000/svg" xmlns:xlink="http://www.w3.org/1999/xlink" viewBox="0 0 59.23 59.23">
  <defs>
    <style>
      .cls-1 {
        fill: #fff;
      }

      .cls-2 {
        fill: #004f9a;
      }

      .cls-3 {
        clip-path: url(#clippath);
      }

      .cls-4 {
        fill: none;
      }
    </style>
    <clipPath id="clippath">
      <rect class="cls-4" x="0" width="59.23" height="59.23"/>
    </clipPath>
  </defs>
  <g id="Icons">
    <g class="cls-3">
      <path class="cls-1" d="M29.61,59.23c16.35,0,29.61-13.26,29.61-29.61S45.97,0,29.61,0,0,13.26,0,29.61s13.26,29.61,29.61,29.61"/>
      <path class="cls-2" d="M23.86,36.76c-1.58,.98-4.14-.88-4.87-1.65-1.62-1.68-2.56-4.63-3.17-5.71-.03-.06-.03-.12,0-.18,.03-.06,.09-.1,.15-.11,5.04-.84,9.96,.75,9.62,5.74-.05,.49-.22,.82-.46,.52-1-2.28-3.34-4.44-5.53-5.07-.03,0-.06,0-.08,.03-.02,.03,0,.06,.02,.08,.77,.49,2.7,1.83,4.02,3.75,.39,.55,.61,1.2,.94,1.79,.17,.31,.32,.69,.44,1.02,.25,.67-.6,.9-.84,.3-.09-.17-.17-.32-.26-.49m28.12-4.71c-.56,5.22-2.92,9.91-6.44,13.44-4.06,4.06-9.67,6.57-15.87,6.57s-11.81-2.51-15.87-6.57c-4.06-4.06-6.57-9.67-6.57-15.87s2.38-11.52,6.26-15.55l-1.27-1.43c-.36-.4-.46-.94-.26-1.45s.63-.83,1.17-.88l8.33-.78c.46-.04,.87,.12,1.18,.46,.31,.34,.42,.78,.32,1.23l-1.75,8.18c-.11,.53-.49,.92-1.01,1.06-.52,.14-1.05-.02-1.41-.42l-1.53-1.72c-2.72,2.98-4.37,6.95-4.37,11.3,0,4.63,1.88,8.83,4.91,11.86,3.04,3.04,7.23,4.91,11.86,4.91s8.83-1.88,11.86-4.91c2.53-2.53,4.26-5.87,4.76-9.6,.05-.35,.34-.61,.7-.61h4.29c.21,0,.38,.08,.52,.23,.14,.15,.2,.34,.18,.54M28.83,7.19c.28-.01,.56-.02,.84-.02,6.2,0,11.81,2.51,15.87,6.57,3.52,3.52,5.88,8.21,6.44,13.43,.02,.21-.04,.39-.18,.54s-.32,.23-.52,.23h-4.29c-.35,0-.65-.26-.7-.61-.5-3.73-2.23-7.07-4.76-9.6-3.04-3.04-7.23-4.91-11.86-4.91-.07,0-.13,0-.2,0-.35,0-.65-.25-.7-.6l-.61-4.25c-.03-.2,.02-.39,.16-.55,.13-.16,.31-.24,.51-.25m2.66,30.63c3.38,1.09,7.17-3.48,8.15-5.21,2.17-3.82,2.48-9.65,3.07-11.91,.03-.12,0-.24-.09-.34-.09-.1-.21-.15-.33-.14-9.66,.73-17.92,5.86-14.9,14.85,.32,.88,.79,1.41,1.09,.76,.74-4.63,3.99-9.64,7.71-11.79,.05-.03,.12-.02,.16,.02,.04,.04,.04,.11,0,.15-1.18,1.25-4.07,4.58-5.59,8.69-.44,1.19-.55,2.48-.87,3.71-.17,.65-.26,1.4-.33,2.07-.13,1.35,1.53,1.38,1.69,.17,.09-.35,.16-.67,.23-1.02"/>
    </g>
  </g>
</svg>