<?xml version="1.0" standalone="no"?>
<!DOCTYPE svg PUBLIC "-//W3C//DTD SVG 1.1//EN" "http://www.w3.org/Graphics/SVG/1.1/DTD/svg11.dtd" >
<!--
2018-3-21: Created.
-->
<svg xmlns="http://www.w3.org/2000/svg">
<metadata>
Created by FontForge 20120731 at Wed Mar 21 08:22:15 2018
 By icons8

</metadata>
<defs>
<font id="Xperts-de" horiz-adv-x="512" >
  <font-face 
    font-family="Xperts-de"
    font-weight="500"
    font-stretch="normal"
    units-per-em="512"
    panose-1="2 0 6 3 0 0 0 0 0 0"
    ascent="448"
    descent="-64"
    bbox="-0.00195312 -64 512.001 448.391"
    underline-thickness="25.6"
    underline-position="-51.2"
    unicode-range="U+0020-F129"
  />
    <missing-glyph />
    <glyph glyph-name="space" unicode=" " horiz-adv-x="200" 
 />
    <glyph glyph-name="eingekreistes-rangabzeichen-unten" unicode="&#xf113;" 
d="M256 427.52c129.88 0 235.52 -105.64 235.52 -235.52s-105.64 -235.52 -235.52 -235.52s-235.52 105.64 -235.52 235.52s105.64 235.52 235.52 235.52zM365.64 215.48c4 4 4 10.4795 0 14.4795s-10.4795 4 -14.4795 0l-95.1602 -95.1602l-95.1602 95.1602
c-4 4 -10.4795 4 -14.4795 0s-4 -10.4795 0 -14.4795l102.399 -102.4c2 -2 4.60059 -3 7.24023 -3s5.24023 1 7.24023 3z" />
    <glyph glyph-name="microsoft-excel" unicode="&#xf105;" 
d="M295.68 448c0.351562 0.0439453 0.924805 0.0800781 1.2793 0.0800781c5.65332 0 10.2412 -4.58789 10.2412 -10.2412v-0.0791016v-51.2002h174.08c11.1924 0 20.4795 -9.28613 20.4795 -20.4795v-348.16c0 -11.1934 -9.28711 -20.4795 -20.4795 -20.4795h-174.08
v-51.2002c-0.0761719 -5.57617 -4.66406 -10.1016 -10.2402 -10.1016c-0.535156 0 -1.39453 0.0810547 -1.91992 0.181641l-286.72 54.3994c-4.59375 0.876953 -8.32227 5.38379 -8.32227 10.0596c0 0.0498047 0.000976562 0.130859 0.00195312 0.180664v382.08
c-0.000976562 0.0498047 -0.00195312 0.130859 -0.00195312 0.180664c0 4.67578 3.72852 9.18262 8.32227 10.0596l286.72 54.3994c0.173828 0.0947266 0.459961 0.238281 0.639648 0.320312zM286.72 425.6l-266.239 -50.8799v-365.439l266.239 -50.8799v47.04
c-0.117188 0.567383 -0.212891 1.49902 -0.212891 2.0791c0 0.581055 0.0957031 1.5127 0.212891 2.08008v362.561c-0.566406 1.1709 -1.02637 3.17871 -1.02637 4.47949c0 1.30176 0.459961 3.30859 1.02637 4.48047v44.4795zM307.2 366.08v-51.2002h40.96v-20.4795h-40.96
v-51.2002h40.96v-20.4805h-40.96v-51.2002h40.96v-20.4795h-40.96v-61.4404h40.96v-20.4795h-40.96v-51.2002h174.08v348.16h-174.08zM368.64 314.88h81.9199v-20.4795h-81.9199v20.4795zM68.4805 287.36h52.4795l27.5205 -57.2803
c2.13965 -4.53613 4.07031 -10.084 5.75977 -16.3203h0.319336c1.06543 3.73828 3.1416 9.57715 6.08008 16.96l30.4004 56.6406h48l-57.2803 -94.7207l58.8799 -96.6396h-50.8799l-33.2793 62.4004c-1.25 2.31348 -2.50977 6.57324 -3.84082 12.7998h-0.319336
c-0.625 -2.93945 -2.16602 -7.48047 -4.48047 -13.4404l-33.2803 -61.7598h-51.1992l61.1201 95.6797zM368.64 243.2h81.9199v-20.4805h-81.9199v20.4805zM368.64 171.52h81.9199v-20.4795h-81.9199v20.4795zM368.64 89.5996h81.9199v-20.4795h-81.9199v20.4795z" />
    <glyph glyph-name="alphabetische-sortierung" unicode="&#xf127;" 
d="M83.8398 431.68h32.6406l67.8398 -175.359h-32.96l-16.6406 46.3994h-70.0801l-16.3193 -46.3994h-31.6807zM99.5195 401.6l-26.5596 -75.5195h53.7598l-26.2393 75.5195h-0.960938zM407.36 366.4c0.639648 0.0400391 1.2793 0.0400391 1.91992 0
c5.55957 0.0800781 10.8799 -2.08008 14.7998 -6s6.08008 -9.24023 6 -14.8008v-253.119l45.7598 46.0791c8.04004 8.04004 21.0801 8.04004 29.1201 0s8.04004 -21.0791 0 -29.1191l-80.96 -80.6406l-14.4004 -14.3994l-14.3994 14.3994l-80.96 80.6406
c-5.7998 5.51953 -7.83984 13.9199 -5.2002 21.5195c2.59961 7.55957 9.40039 12.9199 17.3604 13.6797c6.2793 0.720703 12.5596 -1.55957 16.96 -6.08008l45.7598 -46.0791v253.119c-0.240234 10.6006 7.67969 19.6406 18.2402 20.8008zM36.4805 136.64h133.439v-23.04
l-102.4 -125.76h104.641v-26.5596h-143.68v24.96l102.399 124.16h-94.3994v26.2393z" />
    <glyph glyph-name="checked-checkbox" unicode="&#xf10b;" 
d="M112.64 407.04h286.721c39.4678 0 71.6797 -32.2119 71.6797 -71.6797v-286.721c0 -39.4678 -32.2119 -71.6797 -71.6797 -71.6797h-286.721c-39.4678 0 -71.6797 32.2119 -71.6797 71.6797v286.721c0 39.4678 32.2119 71.6797 71.6797 71.6797zM112.64 386.56
c-28.4023 0 -51.1992 -22.7969 -51.1992 -51.1992v-286.721c0 -28.4023 22.7969 -51.1992 51.1992 -51.1992h286.721c28.4023 0 51.1992 22.7969 51.1992 51.1992v286.721c0 28.4023 -22.7969 51.1992 -51.1992 51.1992h-286.721zM371.06 285.86l15.6406 -13.2402
l-150.32 -177.36l-98.9795 92.3203l13.96 14.9795l83.2793 -77.6797z" />
    <glyph glyph-name="sperren" unicode="&#xf124;" 
d="M256 417.28c67.96 0 122.88 -54.9199 122.88 -122.88v-51.2002h40.96c17.4004 0 30.7197 -13.3203 30.7197 -30.7197v-245.761c0 -17.3994 -13.3193 -30.7197 -30.7197 -30.7197h-327.68c-17.4004 0 -30.7197 13.3203 -30.7197 30.7197v245.761
c0 17.3994 13.3193 30.7197 30.7197 30.7197h40.96v51.2002c0 67.96 54.9199 122.88 122.88 122.88zM256 396.8c-57 0 -102.4 -45.3994 -102.4 -102.399v-51.2002h204.801v51.2002c0 57 -45.4004 102.399 -102.4 102.399zM256 140.8
c-17.4004 0 -30.7197 -13.3193 -30.7197 -30.7197c0 -9.2002 4.08008 -17.2803 10.2393 -22.4004v-28.7998c0 -11.2803 9.2002 -20.4795 20.4805 -20.4795s20.4805 9.19922 20.4805 20.4795v28.7998c6.15918 5.12012 10.2393 13.2002 10.2393 22.4004
c0 17.4004 -13.3193 30.7197 -30.7197 30.7197z" />
    <glyph glyph-name="download" unicode="&#xf103;" 
d="M255.04 438.08c0.265625 0.0253906 0.698242 0.0458984 0.96582 0.0458984c5.65234 0 10.2402 -4.58789 10.2402 -10.2412c0 -0.100586 -0.00292969 -0.263672 -0.00585938 -0.365234v-312.96l64.3193 64.3203c1.68359 1.68262 4.98047 3.04883 7.36035 3.04883
c5.74609 0 10.4082 -4.66309 10.4082 -10.4092c0 -2.37891 -1.36523 -5.67676 -3.04785 -7.35938l-81.9199 -81.9199l-7.36035 -7.04004l-7.36035 7.04004l-81.9199 81.9199c-1.81738 1.67871 -3.29297 5.04883 -3.29297 7.52344c0 4.71973 3.76953 9.23438 8.41309 10.0762
c0.609375 0.136719 1.60938 0.24707 2.2334 0.24707c2.39941 0 5.7002 -1.40137 7.36719 -3.12695l64.3193 -64.3203v312.96l-0.00292969 0.24707c0 4.52734 3.58594 9.00391 8.00293 9.99316c0.347656 0.111328 0.920898 0.254883 1.28027 0.320312zM71.6797 284.16
h10.2402h92.1602l0.144531 0.000976562c5.65332 0 10.2412 -4.58789 10.2412 -10.2412s-4.58789 -10.2412 -10.2412 -10.2412l-0.144531 0.000976562h-81.9199v-307.199h327.68v307.199h-81.9199l-0.144531 -0.000976562c-5.65332 0 -10.2412 4.58789 -10.2412 10.2412
s4.58789 10.2412 10.2412 10.2412l0.144531 -0.000976562h92.1602h10.2402v-10.2402v-327.68v-10.2402h-10.2402h-348.16h-10.2402v10.2402v327.68v10.2402z" />
    <glyph glyph-name="car-filled" unicode="&#xf100;" 
d="M256 366.08c66.376 0 91.3047 -8.66797 96.6396 -10.8799c17.3262 -4.9668 41.0195 -13.7832 49.6006 -33.2803c3.76758 -8.59082 15.5391 -38.5664 27.5195 -69.4395c0.123047 -0.328125 0.176758 -0.632812 0.320312 -0.960938
c14.4277 -37.1602 28.9941 -75.2119 30.0801 -78.0791l0.639648 -1.9209v-56.96v-26.5596v-39.3604c0 -16.9365 -13.7832 -30.7197 -30.7197 -30.7197h-40.96c-16.9375 0 -30.7197 13.7832 -30.7197 30.7197v10.2402h-204.801v-10.2402
c0 -16.9365 -13.7822 -30.7197 -30.7197 -30.7197h-40.96c-16.9365 0 -30.7197 13.7832 -30.7197 30.7197v39.3604v26.5596v56.96l0.639648 1.9209c5.16113 13.7617 50.668 135.014 57.6006 148.479c10.209 19.8047 33.7383 27.8838 49.5996 33.2803
c4.7207 2.02734 29.3857 10.8799 96.96 10.8799zM256 345.6c-67.0928 0 -88.7549 -9.1875 -88.96 -9.2793l-0.959961 -0.320312c-12.749 -4.33105 -31.8877 -11.0439 -38.4004 -23.6797c-2.55957 -4.97754 -12.7441 -30.7451 -24.6396 -61.7607l-0.320312 -0.639648
l-0.639648 -1.28027c-2.46777 -6.06152 -7.69336 -18.7822 -2.87988 -25.9199c4.0957 -6.10254 16.4609 -10.2393 33.9199 -10.2393h245.76c17.4492 0 29.1738 3.19727 33.2803 9.2793c3.99316 5.96973 1.22852 15.8057 -1.28027 22.4004
c-0.276367 0.716797 -0.683594 1.5332 -0.959961 2.24023c-0.18457 0.459961 -0.15625 0.879883 -0.320312 1.2793l-0.959961 1.91992c-11.2529 28.959 -21.8594 56.1875 -25.2793 64c-5.7959 13.2002 -29.3994 19.8887 -37.1201 22.0801l-1.60059 0.640625
c-0.0820312 0.0302734 -21.5469 9.2793 -88.6396 9.2793zM52.1602 253.44h8c-8.3252 -21.8018 -16.6201 -44.0303 -23.04 -61.1201c-23.0098 1.76074 -26.8799 15.6768 -26.8799 24.3193c0 17.7568 10.9746 36.8008 41.9199 36.8008zM451.2 253.44h8.63965
c30.9561 0 41.9199 -19.0439 41.9199 -36.8008c0 -8.66309 -3.78906 -22.5889 -26.8799 -24.3193c-5.24316 13.5986 -14.4023 37.168 -23.6797 61.1201zM112.64 171.52c-11.3047 0 -20.4795 -9.16406 -20.4795 -20.4795c0 -13.3838 9.55078 -19.832 21.4395 -26.5596
c17.7461 -10.0557 22.8379 -14.4004 40 -14.4004c16.958 0 30.7207 13.7422 30.7207 30.7197c0 16.9785 -13.7627 30.7197 -30.7207 30.7197h-40.96zM358.4 171.52c-16.958 0 -30.7207 -13.7412 -30.7207 -30.7197c0 -16.9775 13.7627 -30.7197 30.7207 -30.7197
c17.1621 0 22.2637 4.34473 40 14.4004c11.8887 6.72754 21.4395 13.1758 21.4395 26.5596c0 11.3154 -9.1748 20.4795 -20.4795 20.4795h-40.96z" />
    <glyph glyph-name="kalender" unicode="&#xf11e;" 
d="M122.88 448h20.4805c11.1992 0 20.4795 -9.28027 20.4795 -20.4805v-20.4795h184.32v20.4795c0 11.2002 9.28027 20.4805 20.4795 20.4805h20.4805c11.2002 0 20.4795 -9.28027 20.4795 -20.4805v-20.4795h61.4404c11.8799 0 20.4795 -8.59961 20.4795 -20.4805v-71.6797
h-471.039v71.6797c0 11.8809 8.59961 20.4805 20.4795 20.4805h61.4404v20.4795c0 11.2002 9.2793 20.4805 20.4795 20.4805zM122.88 427.52v-61.4395h20.4805v61.4395h-20.4805zM368.64 427.52v-61.4395h20.4805v61.4395h-20.4805zM20.4805 294.4h471.039v-317.44
c0 -11.8799 -8.59961 -20.4795 -20.4795 -20.4795h-430.08c-11.8799 0 -20.4795 8.59961 -20.4795 20.4795v317.44zM122.88 232.96v-51.2002h51.2002v51.2002h-51.2002zM194.56 232.96v-51.2002h51.2002v51.2002h-51.2002zM266.24 232.96v-51.2002h51.2002v51.2002h-51.2002
zM337.92 232.96v-51.2002h51.2002v51.2002h-51.2002zM122.88 161.28v-51.2002h51.2002v51.2002h-51.2002zM194.56 161.28v-51.2002h51.2002v51.2002h-51.2002zM266.24 161.28v-51.2002h51.2002v51.2002h-51.2002zM337.92 161.28v-51.2002h51.2002v51.2002h-51.2002z
M122.88 89.5996v-51.1992h51.2002v51.1992h-51.2002zM194.56 89.5996v-51.1992h51.2002v51.1992h-51.2002zM266.24 89.5996v-51.1992h51.2002v51.1992h-51.2002zM337.92 89.5996v-51.1992h51.2002v51.1992h-51.2002z" />
    <glyph glyph-name="zur-ck" unicode="&#xf114;" 
d="M208.615 192l169.077 -172.615c7.53809 -7.69238 7.46191 -20 -0.154297 -27.6924l-30.2305 -30.2305c-7.76953 -7.69238 -20.2305 -7.69238 -27.9229 0.0761719l-215.154 216.539c-3.8457 3.8457 -5.76855 8.8457 -5.76855 13.9229s1.92285 10.0771 5.76855 13.9229
l215.154 216.539c7.69238 7.76855 20.1533 7.76855 27.9229 0.0761719l30.2305 -30.2305c7.61621 -7.69238 7.69238 -20 0.154297 -27.6924z" />
    <glyph glyph-name="headset" unicode="&#xf122;" 
d="M256 437.76c87.7197 0 161.36 -61.7598 179.84 -144c-1.87988 0.200195 -3.83984 0.640625 -5.75977 0.640625c-5.28027 0 -10.2803 -1.08008 -15.04 -2.56055c-17.3604 71.7998 -82 125.44 -159.04 125.44c-77.0801 0 -141.68 -53.6406 -159.04 -125.44
c-4.75977 1.48047 -9.7998 2.56055 -15.04 2.56055c-1.91992 0 -3.87988 -0.44043 -5.75977 -0.640625c18.4795 82.2402 92.0801 144 179.84 144zM81.9199 273.92c16.9199 0 30.7197 -13.7998 30.7197 -30.7197v-153.601c0 -16.9199 -13.7998 -30.7197 -30.7197 -30.7197
s-30.7197 13.7998 -30.7197 30.7197v153.601c0 16.9199 13.7998 30.7197 30.7197 30.7197zM430.08 273.92c16.9199 0 30.7197 -13.7998 30.7197 -30.7197v-153.601c0 -16.9199 -13.7998 -30.7197 -30.7197 -30.7197s-30.7197 13.7998 -30.7197 30.7197v153.601
c0 16.9199 13.7998 30.7197 30.7197 30.7197zM30.7197 241.92v-151.04c-18.4795 14.8398 -30.7197 42.6797 -30.7197 75.5205c0 32.8398 12.2402 60.6797 30.7197 75.5195zM481.28 241.92c18.4795 -14.8398 30.7197 -42.6797 30.7197 -75.5195
c0 -32.8408 -12.2402 -60.6807 -30.7197 -75.5205v151.04zM415.68 40.6396c4.60059 -1.35938 9.36035 -2.23926 14.4004 -2.23926c2.2002 0 4.24023 0.359375 6.40039 0.639648c-10.4805 -38.96 -42.3203 -62.0801 -88.3203 -62.0801h-11.2002
c0.679688 3.32031 0.959961 6.71973 0.959961 10.2402c0 3.51953 -0.280273 6.91992 -0.959961 10.2402h11.2002c35 0 58.4795 15.3994 67.5195 43.1992zM235.52 17.9199h51.2002c16.9199 0 30.7207 -13.7998 30.7207 -30.7197s-13.8008 -30.7197 -30.7207 -30.7197
h-51.2002c-16.9199 0 -30.7197 13.7998 -30.7197 30.7197s13.7998 30.7197 30.7197 30.7197z" />
    <glyph glyph-name="vorw-rts" unicode="&#xf115;" 
d="M303.385 192l-169.077 172.615c-7.53809 7.69238 -7.46191 20 0.154297 27.6924l30.2305 30.2305c7.76953 7.69238 20.2305 7.69238 27.9229 -0.0761719l215.154 -216.539c3.8457 -3.8457 5.76855 -8.8457 5.76855 -13.9229s-1.92285 -10.0771 -5.76855 -13.9229
l-215.154 -216.539c-7.69238 -7.76855 -20.1533 -7.76855 -27.9229 -0.0761719l-30.2305 30.2305c-7.61621 7.69238 -7.69238 20 -0.154297 27.6924z" />
    <glyph glyph-name="zip" unicode="&#xf107;" 
d="M71.6797 427.52h227.16l141.48 -137.319v-323.48v-10.2393h-368.641v471.039zM92.1602 407.04v-430.08h327.68v296.96h-133.12v133.12h-194.56zM307.2 390.86v-96.46h99.3994zM309.42 214.84c12.8926 0 23.4102 -2.3584 30.6797 -9.25977
c6.52344 -6.1748 9.80078 -15.624 9.80078 -26.1396c0 -12.3398 -3.45898 -20.6875 -9.08008 -27.2207c-7.26074 -8.5293 -19.0576 -12.7197 -29.4199 -12.7197c-1.99707 0 -2.3877 0.00585938 -4.2002 0.200195v-29.6201h-20.4805l0.0205078 102.4
c6.1748 1.45312 14.1494 2.35938 22.6797 2.35938zM163.84 212.48h61.4404v-13.9805l-38.4004 -71v-0.540039h38.4004v-16.8799h-61.4404l-0.0195312 11.4395l39.6797 73.7207v0.359375h-39.6602v16.8809zM245.76 212.48h20.5205l-0.0400391 -102.4h-20.4805v102.4z
M312.68 199.06c-2.72363 0 -3.8418 -0.366211 -5.47949 -0.919922v-42.4795c1.4541 -0.358398 1.50293 -0.339844 3.5 -0.339844c12.6973 0 19.7803 8.69141 19.7803 22.6797c0 11.4277 -4.73438 21.0596 -17.8008 21.0596z" />
    <glyph glyph-name="support" unicode="&#xf120;" 
d="M377.6 448.32c5.88086 0.160156 11.5605 0 16.96 0h4.48047c9.67969 -0.0400391 13.3604 -5 14.7197 -8c3.52051 -7.83984 -2.35938 -14.9199 -4.16016 -16.96c-0.399414 -0.400391 -57.1191 -57.4404 -67.5195 -67.8408
c-3.40039 -10.3594 0.599609 -59.7598 5.75977 -71.0391c7.75977 -3.32031 39.04 -7.68066 61.4404 -7.68066c6.23926 0 9.47949 0.400391 10.8799 0.640625l66.5596 66.8799c2.12012 1.91992 6.36035 5.12012 11.8398 5.12012c3.44043 0 6.88086 -1.12012 9.28027 -3.52051
c2.95996 -2.95996 4.2002 -7.28027 4.16016 -12.7998c-0.120117 -31.4404 -0.44043 -105.12 -36.1602 -140.8l-6.71973 -6.7207c-22.4805 -22.5195 -52.04 -35.1992 -83.2002 -35.1992c-31.5195 0 -61.4004 12.6797 -84.1602 35.5195l-51.2002 51.2002
c-46.9199 47.1602 -47.2793 121.04 -0.639648 168l7.04004 6.71973c28.7197 28.7598 79.4404 35.3203 120.64 36.4805zM218.88 243.84l12.4805 -16.3203l60.4795 -60.4795l16.3203 -12.4805l-177.28 -195.199c-9 -9.04004 -25.2803 -19.1602 -44.7998 -22.0801
c-3.28027 -0.520508 -6.67969 -0.959961 -10.5605 -0.959961c-15.0791 0 -33.8799 4.75977 -51.8398 22.7197c-39 39.04 -20.6797 86.4795 0 107.2z" />
    <glyph glyph-name="aktentasche" unicode="&#xf125;" 
d="M204.8 417.28h102.4c16.8398 0 30.7197 -13.8799 30.7197 -30.7207v-30.7197h143.36c16.9199 0 30.7197 -13.7998 30.7197 -30.7197v-133.12c0 -16.9199 -13.7998 -30.7197 -30.7197 -30.7197h-450.561c-16.9199 0 -30.7197 13.7998 -30.7197 30.7197v133.12
c0 16.9199 13.7998 30.7197 30.7197 30.7197h143.36v30.7197c0 16.8408 13.8799 30.7207 30.7197 30.7207zM204.8 396.8c-5.75977 0 -10.2402 -4.47949 -10.2402 -10.2402v-30.7197h122.881v30.7197c0 5.76074 -4.48047 10.2402 -10.2402 10.2402h-102.4zM256 222.72
c-11.3203 0 -20.4805 -9.16016 -20.4805 -20.4795c0 -11.3203 9.16016 -20.4805 20.4805 -20.4805s20.4805 9.16016 20.4805 20.4805c0 11.3193 -9.16016 20.4795 -20.4805 20.4795zM0 171.52c0 -16.9199 13.7998 -30.7197 30.7197 -30.7197h450.561
c16.9199 0 30.7197 13.7998 30.7197 30.7197v-174.079c0 -16.9209 -13.7998 -30.7207 -30.7197 -30.7207h-450.561c-16.9199 0 -30.7197 13.7998 -30.7197 30.7207v174.079z" />
    <glyph glyph-name="geschlechtsneutraler-benutzer" unicode="&#xf11d;" 
d="M356.36 101.88c41.96 -17.3994 104.439 -44.04 104.439 -114.68v-10.2402h-409.6v10.2402c0 70.6396 62.4795 97.2803 104.439 114.68c17.4004 8.2002 38.9199 17.4004 38.9199 23.5605v46.0791c-25.5996 18.4404 -40.96 50.1602 -40.96 81.9209v61.4395
c0 56.3203 46.0801 102.4 102.4 102.4s102.4 -46.0801 102.4 -102.4v-61.4395c0 -31.7607 -15.3604 -62.4805 -40.96 -81.9209v-46.0791c0 -7.16016 21.5195 -16.4004 38.9199 -23.5605z" />
    <glyph glyph-name="suche" unicode="&#xf129;" 
d="M215.04 417.28c96.2402 0 174.08 -77.8398 174.08 -174.08c0 -39.7197 -13.5205 -76 -35.8398 -105.28l124.16 -123.84l-43.5205 -43.5205l-125.76 125.761c-26.96 -17.1201 -58.7598 -27.2002 -93.1201 -27.2002c-96.2402 0 -174.08 77.8398 -174.08 174.08
s77.8398 174.08 174.08 174.08zM215.04 376.32c-73.7197 0 -133.12 -59.4004 -133.12 -133.12s59.4004 -133.12 133.12 -133.12s133.12 59.4004 133.12 133.12s-59.4004 133.12 -133.12 133.12z" />
    <glyph glyph-name="unchecked-checkbox" unicode="&#xf10a;" 
d="M112.64 407.04h286.721c39.4678 0 71.6797 -32.2119 71.6797 -71.6797v-286.721c0 -39.4678 -32.2119 -71.6797 -71.6797 -71.6797h-286.721c-39.4678 0 -71.6797 32.2119 -71.6797 71.6797v286.721c0 39.4678 32.2119 71.6797 71.6797 71.6797zM112.64 386.56
c-28.4023 0 -51.1992 -22.7969 -51.1992 -51.1992v-286.721c0 -28.4023 22.7969 -51.1992 51.1992 -51.1992h286.721c28.4023 0 51.1992 22.7969 51.1992 51.1992v286.721c0 28.4023 -22.7969 51.1992 -51.1992 51.1992h-286.721z" />
    <glyph glyph-name="drucken" unicode="&#xf11a;" 
d="M112.64 427.52h286.721v-133.119h61.4395c16.9375 0 30.7197 -13.7832 30.7197 -30.7207v-184.319c0 -16.9375 -13.7822 -30.7207 -30.7197 -30.7207h-61.4395v-92.1592h-286.721v92.1592h-61.4395c-16.9375 0 -30.7197 13.7832 -30.7197 30.7207v184.319
c0 16.9375 13.7822 30.7207 30.7197 30.7207h61.4395v133.119zM133.12 407.04v-112.64h245.76v112.64h-245.76zM419.84 243.2c-11.3154 0 -20.4795 -9.16504 -20.4795 -20.4805c0 -11.3145 9.16406 -20.4795 20.4795 -20.4795s20.4805 9.16504 20.4805 20.4795
c0 11.3154 -9.16504 20.4805 -20.4805 20.4805zM133.12 140.8v-92.1602v-71.6797h245.76v71.6797v92.1602h-245.76zM174.08 110.08h163.84l0.144531 0.000976562c5.65332 0 10.2412 -4.58789 10.2412 -10.2412s-4.58789 -10.2412 -10.2412 -10.2412l-0.144531 0.000976562
h-163.84l-0.144531 -0.000976562c-5.65332 0 -10.2412 4.58789 -10.2412 10.2412s4.58789 10.2412 10.2412 10.2412zM174.08 69.1201h122.88l0.144531 0.000976562c5.65332 0 10.2412 -4.58789 10.2412 -10.2412s-4.58789 -10.2412 -10.2412 -10.2412
c-0.0400391 0 -0.104492 0.000976562 -0.144531 0.000976562h-122.88c-0.0400391 0 -0.104492 -0.000976562 -0.144531 -0.000976562c-5.65332 0 -10.2412 4.58789 -10.2412 10.2412s4.58789 10.2412 10.2412 10.2412zM174.08 28.1602h163.84
c0.0400391 0 0.104492 0.000976562 0.144531 0.000976562c5.65332 0 10.2412 -4.58789 10.2412 -10.2412s-4.58789 -10.2412 -10.2412 -10.2412c-0.0400391 0 -0.104492 0.000976562 -0.144531 0.000976562h-163.84
c-0.0400391 0 -0.104492 -0.000976562 -0.144531 -0.000976562c-5.65332 0 -10.2412 4.58789 -10.2412 10.2412s4.58789 10.2412 10.2412 10.2412c0.0400391 0 0.104492 -0.000976562 0.144531 -0.000976562z" />
    <glyph glyph-name="touchscreen-smartphone" unicode="&#xf126;" 
d="M368.64 417.28c16.9199 0 30.7207 -13.7998 30.7207 -30.7207v-389.119c0 -16.9209 -13.8008 -30.7207 -30.7207 -30.7207h-225.279c-16.9199 0 -30.7207 13.7998 -30.7207 30.7207v389.119c0 16.9209 13.8008 30.7207 30.7207 30.7207h225.279zM256 391.68
c-5.63965 0 -10.2402 -4.59961 -10.2402 -10.2393c0 -5.64062 4.60059 -10.2402 10.2402 -10.2402c5.67969 0 10.2402 4.59961 10.2402 10.2402c0 5.63965 -4.56055 10.2393 -10.2402 10.2393zM286.72 -2.55957c5.68066 0 10.2402 4.55957 10.2402 10.2393
c0 5.68066 -4.55957 10.2402 -10.2402 10.2402h-61.4395c-5.64062 0 -10.2402 -4.55957 -10.2402 -10.2402c0 -5.67969 4.59961 -10.2393 10.2402 -10.2393h61.4395zM348.16 38.4004v317.439h-184.32v-317.439h184.32z" />
    <glyph glyph-name="h-kchen" unicode="&#xf10d;" 
d="M411.333 335.333l30.667 -30.666l-234.667 -234.667l-15.333 -14.667l-15.333 14.667l-106.667 106.667l30.667 30.666l91.333 -91.333z" />
    <glyph glyph-name="geography-filled" unicode="&#xf102;" 
d="M474.654 80.0156h-92.8145c7.28027 30.9863 11.6016 65.3105 12.2773 101.744h107.387c-1.51562 -36.5156 -11.0488 -70.9941 -26.8496 -101.744zM10.4961 181.76h107.387c0.686523 -36.4336 4.99707 -70.748 12.2773 -101.744h-92.8145
c-15.8105 30.75 -25.3447 65.2285 -26.8496 101.744zM37.3457 303.984h92.8145c-7.28027 -30.9961 -11.5811 -65.3203 -12.2666 -101.744h-107.397c1.50488 36.5254 11.0391 70.9941 26.8496 101.744zM266.24 324.905v111.82
c36.4336 -6.91211 68.6895 -50.1963 88.1455 -111.831h-88.1455v0.0107422zM360.314 303.984c7.82422 -30.9141 12.5752 -65.4434 13.3223 -101.744h-107.396v101.744h94.0742zM245.76 436.726v-111.831h-88.1455c19.4561 61.6348 51.7119 104.919 88.1455 111.831z
M245.76 303.984v-101.744h-107.387c0.757812 36.29 5.49902 70.8301 13.3125 101.744h94.0742zM138.373 181.76h107.387v-101.744h-94.0742c-7.81348 30.9141 -12.5645 65.4434 -13.3125 101.744zM245.76 59.0947v-111.831
c-36.4336 6.92285 -68.6895 50.1973 -88.1455 111.831h88.1455zM266.24 -52.7256v111.82h88.1455c-19.4561 -61.624 -51.7119 -104.908 -88.1455 -111.82zM266.24 80.0156v101.744h107.387c-0.748047 -36.3008 -5.49902 -70.8301 -13.3223 -101.744h-94.0645z
M394.106 202.24c-0.675781 36.4238 -4.98633 70.748 -12.2773 101.744h92.8154c15.8105 -30.75 25.3438 -65.2188 26.8496 -101.744h-107.388zM462.562 324.905h-86.2412c-13.1592 44.8301 -32.8711 81.1514 -56.8223 104.499
c59.6377 -15.9746 110.367 -53.8828 143.063 -104.499zM192.502 429.394c-23.9512 -23.3467 -43.6631 -59.668 -56.8115 -104.499h-86.252c32.6865 50.627 83.415 88.5352 143.063 104.499zM49.4385 59.0947h86.2412c13.1592 -44.8301 32.8711 -81.1514 56.8223 -104.499
c-59.6377 15.9746 -110.377 53.8828 -143.063 104.499zM319.498 -45.4043c23.9512 23.3477 43.6631 59.6689 56.8223 104.499h86.2412c-32.6963 -50.6162 -83.4258 -88.5244 -143.063 -104.499z" />
    <glyph glyph-name="sonnenbrille" unicode="&#xf123;" 
d="M174.08 376.32c16.4004 -2.04004 31.7598 -15.3604 46.0801 -38.9199l5.12012 -9.2002l-18.4404 -11.2803l-5.12012 9.2002c-10.2393 16.3994 -20.4795 26.6396 -29.6797 27.6797s-15.3604 -5.12012 -17.4404 -7.16016l-56.2793 -82.96
c-11.2803 0 -20.4805 -1.04004 -28.6807 -3.08008l68.6006 101.4c1.04004 0 15.3594 16.3604 35.8398 14.3203zM337.92 376.32c21.5205 2.04004 34.7998 -14.3203 35.8398 -14.3203l1 -1.04004l67.6006 -101.4c-8.2002 1.04004 -18.4004 3.12012 -28.6406 3.12012
l-56.3193 82.9199c-2.08008 2.04004 -8.24023 8.2002 -17.4404 7.16016c-10.2402 -1.04004 -20.4795 -10.2402 -29.6797 -27.6396l-5.12012 -9.24023l-18.4404 11.2803l5.12012 10.2402c13.3203 23.5596 28.6797 36.8799 46.0801 38.9199zM107.52 243.2
c1.80078 0 3.36035 -0.120117 5.12012 -0.160156v0.160156h286.721v-0.120117c1.39941 0 2.67969 0.120117 4.12012 0.120117c88.0391 0 88.0391 -47.1201 88.0391 -91.1602c0 -51.2002 -39.9199 -92.1602 -88.0391 -92.1602c-50.2002 0 -89.1201 42 -107.521 81.9199
c-3.24023 6.71973 -5.63965 13.2402 -7.32031 19.4805h-65.7598c-1.47949 -6.64062 -3.71973 -13.4805 -6.83984 -20.4805c-18.4004 -38.9199 -57.3203 -81.9199 -107.521 -81.9199c-49.1191 0 -88.0391 40.96 -88.0391 92.1602c0 45.04 0 92.1602 87.0391 92.1602z
M202.36 222.72c6.12012 -4.39941 11.04 -9.47949 14.7197 -15.3594c4.83984 -7.48047 7.28027 -16.1602 7.75977 -25.6006h61.4004c0.319336 9.36035 2.71973 18 7.63965 25.6006c3.7998 5.7998 8.91992 10.9199 15.2803 15.3594h-106.8z" />
    <glyph glyph-name="pfeil--ausklappen" unicode="&#xf111;" 
d="M426.5 294.634l0.402344 0.00390625c9.42188 0 17.0684 -7.64648 17.0684 -17.0684c0 -4.01074 -2.3457 -9.52246 -5.2373 -12.3027l-170.667 -170.667c-2.75879 -2.75781 -8.16504 -4.99609 -12.0664 -4.99609s-9.30762 2.23828 -12.0664 4.99609l-170.667 170.667
c-2.85059 2.77441 -5.16406 8.25391 -5.16406 12.2314c0 9.41992 7.64453 17.0664 17.0645 17.0684c3.97852 0 9.45898 -2.31445 12.2334 -5.16602l158.6 -158.601l158.6 158.601c2.68945 2.79688 8.02148 5.1416 11.9004 5.2334z" />
    <glyph glyph-name="uhr" unicode="&#xf119;" 
d="M256 427.52c129.953 0 235.52 -105.566 235.52 -235.52s-105.566 -235.52 -235.52 -235.52s-235.52 105.566 -235.52 235.52s105.566 235.52 235.52 235.52zM256 407.04c-118.885 0 -215.04 -96.1553 -215.04 -215.04s96.1553 -215.04 215.04 -215.04
s215.04 96.1553 215.04 215.04s-96.1553 215.04 -215.04 215.04zM255.84 376.46l0.160156 0.000976562c5.65332 0 10.2412 -4.58789 10.2412 -10.2402l-0.000976562 -0.140625v-145.16c11.2881 -3.99121 20.4629 -16.9473 20.4795 -28.9199
c0 -16.957 -13.7627 -30.7197 -30.7197 -30.7197c-3.83691 0.0078125 -9.75977 1.36035 -13.2197 3.01953l-61.46 -61.46c-1.66895 -1.7373 -4.97852 -3.14844 -7.3877 -3.14844c-5.65332 0 -10.2412 4.58789 -10.2412 10.2412c0 2.40918 1.41113 5.71875 3.14844 7.3877
l61.46 61.46c-1.65918 3.45996 -3.01172 9.38281 -3.01953 13.2197c0.00878906 11.9814 9.18359 24.9463 20.4795 28.9404v145.14l-0.000976562 0.140625c0 5.56445 4.5166 10.1523 10.0811 10.2393z" />
    <glyph glyph-name="image-file" unicode="&#xf108;" 
d="M71.6797 427.52h229.48l139.16 -137.359v-323.44v-10.2393h-368.641v471.039zM92.1602 407.04v-430.08h327.68v296.96h-133.12v133.12h-194.56zM307.2 392.78v-98.3799h99.6602zM343.04 229.54c10.6758 -0.00195312 19.3398 -8.41113 19.3398 -18.7695v-0.0107422
c-0.00585938 -10.3535 -8.66992 -18.7578 -19.3398 -18.7598c-10.6699 0.00195312 -19.334 8.40625 -19.3398 18.7598v0.0107422c0 10.3584 8.66406 18.7676 19.3398 18.7695zM216.76 202.24c2.72949 -0.111328 6.25098 -1.99316 7.86035 -4.2002l37.0596 -50.7402
l21.8203 30.0605c1.66406 2.28906 5.31055 4.17969 8.13965 4.21973l0.150391 0.000976562c2.68066 0 6.2334 -1.68457 7.92969 -3.76074l66.6201 -81.7607c1.2666 -1.55762 2.29492 -4.45215 2.29492 -6.45996c0 -5.57227 -4.52246 -10.1602 -10.0947 -10.2393
l-66.6396 -0.84082h-0.0605469h-0.0595703c-0.0966797 -0.00292969 -0.253906 -0.00585938 -0.350586 -0.00585938s-0.25293 0.00292969 -0.349609 0.00585938h-151.12c-5.65234 0.000976562 -10.2393 4.58984 -10.2393 10.2412c0 1.85938 0.895508 4.58301 1.99902 6.0791
l76.4004 103.26c1.69434 2.29004 5.38281 4.14844 8.23145 4.14844c0.112305 0 0.295898 -0.00390625 0.408203 -0.0078125zM216.3 174.7l-56.0195 -75.7002h111.319l-17.9795 24.6201c-0.0390625 0.0488281 -0.101562 0.129883 -0.139648 0.179688zM292.24 154.56
l-17.8604 -24.6191l22.5605 -30.9004l40.1396 0.519531z" />
    <glyph glyph-name="microsoft-word" unicode="&#xf106;" 
d="M295.68 448c0.351562 0.0439453 0.924805 0.0800781 1.2793 0.0800781c5.65332 0 10.2412 -4.58789 10.2412 -10.2412v-0.0791016v-51.2002h174.08c11.1924 0 20.4795 -9.28613 20.4795 -20.4795v-348.16c0 -11.1934 -9.28711 -20.4795 -20.4795 -20.4795h-174.08
v-51.2002c-0.0761719 -5.57617 -4.66406 -10.1016 -10.2402 -10.1016c-0.535156 0 -1.39453 0.0810547 -1.91992 0.181641l-286.72 54.3994c-4.59375 0.876953 -8.32227 5.38379 -8.32227 10.0596c0 0.0498047 0.000976562 0.130859 0.00195312 0.180664v382.08
c-0.000976562 0.0498047 -0.00195312 0.130859 -0.00195312 0.180664c0 4.67578 3.72852 9.18262 8.32227 10.0596l286.72 54.3994c0.173828 0.0947266 0.459961 0.238281 0.639648 0.320312zM286.72 425.6l-266.239 -50.8799v-365.439l266.239 -50.8799v47.04
c-0.117188 0.567383 -0.212891 1.49902 -0.212891 2.0791c0 0.581055 0.0957031 1.5127 0.212891 2.08008v363.841c-0.253906 0.819336 -0.460938 2.18164 -0.460938 3.04004c0 0.857422 0.207031 2.21973 0.460938 3.03906v46.0801zM307.2 366.08v-51.2002h143.359
v-20.4795h-143.359v-51.2002h143.359v-20.4805h-143.359v-51.2002h143.359v-20.4795h-143.359v-61.4404h143.359v-20.4795h-143.359v-51.2002h174.08v348.16h-174.08zM47.3604 287.68h36.4795l20.7998 -127.359c0.901367 -5.42773 1.51074 -12.915 1.91992 -22.0801
h0.640625c0.265625 6.85059 1.46973 14.29 3.2002 22.3994l26.8799 127.04h35.8398l24.3203 -128.64c0.890625 -4.70996 1.54297 -11.4893 2.23926 -20.4805h0.320312c0.276367 7.02539 1.05176 14.2422 2.24023 21.4404l20.4795 127.68h33.9199l-39.3594 -191.359h-37.1201
l-24.6406 122.56c-1.2998 6.41016 -1.96289 13.8447 -2.23926 21.7598h-0.320312c-0.625 -8.72363 -1.71289 -16.1377 -2.87988 -21.7598l-25.2803 -122.56h-38.3994z" />
    <glyph glyph-name="info" unicode="&#xf10f;" 
d="M256 400c114.688 0 208 -93.3125 208 -208s-93.3125 -208 -208 -208s-208 93.3125 -208 208s93.3125 208 208 208zM256 368c-97.375 0 -176 -78.625 -176 -176s78.625 -176 176 -176s176 78.625 176 176s-78.625 176 -176 176zM240 288h32v-32h-32v32zM240 224h32v-128
h-32v128z" />
    <glyph glyph-name="sprechblase" unicode="&#xf11c;" 
d="M256 407.04c129.88 0 235.52 -91.8799 235.52 -204.8s-105.64 -204.8 -235.52 -204.8c-19.5596 0 -38.96 2.0791 -57.7197 6.19922c-12.3604 -13.0801 -49.96 -47.1592 -105.561 -47.1592l-20.2393 0.0791016l11.3193 16.04
c21.5205 30.5605 26.96 56.6807 28.3203 67.4404c-57.4805 38.6396 -91.6396 98.8398 -91.6396 162.2c0 112.92 105.64 204.8 235.52 204.8z" />
    <glyph glyph-name="neuer-beitrag" unicode="&#xf11f;" 
d="M0 376.32h512v-32l-256 -200.641l-256 203.2v29.4404zM0 320.96l249.6 -198.4c1.88086 -1.47949 4.16016 -2.23926 6.40039 -2.23926s4.55957 0.799805 6.40039 2.23926l249.6 195.841v-310.721h-512v313.28z" />
    <glyph glyph-name="filter" unicode="&#xf117;" 
d="M40.96 427.52h430.08c6.16016 0 10.2402 -4.0791 10.2402 -10.2393v-30.7207c0 -3.0791 -1.16016 -5 -3.2002 -7.04004l-163.84 -174.079c-2.04004 -2.04004 -3.95996 -3.2002 -7.04004 -3.2002h-102.4c-2.04004 0 -5 1.16016 -7.04004 3.2002l-163.84 174.079
c-2.04004 2.04004 -3.2002 3.96094 -3.2002 7.04004v30.7207c0 6.16016 4.08008 10.2393 10.2402 10.2393zM194.56 181.76h122.881v-215.04c0 -4.08008 -2.04004 -7.23926 -5.12012 -9.2793c-2.04004 -1.04004 -3.08008 -0.959961 -5.12012 -0.959961
s-4.08008 -0.0800781 -5.12012 0.959961l-102.4 61.4395c-3.08008 2.04004 -5.12012 5.2002 -5.12012 9.28027v153.6z" />
    <glyph glyph-name="interstate-truck-filled" unicode="&#xf101;" 
d="M83.8398 448h343.04c18.6367 0 33.9199 -14.5762 33.9199 -32.6396v-80.3203h-7.04004c-13.1279 0 -24.9219 -5.86523 -32.96 -15.04c-8.20215 35.9326 -66.9365 54.4004 -175.04 54.4004c-95.9385 0 -146.686 -17.3906 -154.56 -52.8008
c-8.0791 8.87891 -19.2178 14.71 -31.6807 14.7207h-8.31934v79.04c0 18.0635 14.5762 32.6396 32.6396 32.6396zM245.76 353.92c25.5801 0 153.186 -2.2168 155.521 -41.5996l8.63965 -63.6807l4.16016 -32l4.47949 -34.8799h9.60059
c3.37891 0 6.40527 -0.375977 9.59961 -0.959961c1.68945 -0.317383 3.5127 -0.819336 5.12012 -1.28027c1.30078 -0.368164 2.59082 -0.829102 3.83984 -1.2793c2.15039 -0.798828 4.08301 -1.49512 6.08008 -2.56055
c0.47168 -0.245117 0.819336 -0.713867 1.28027 -0.959961c2.29395 -1.2998 4.65137 -2.5625 6.71973 -4.16016c2.85742 -2.20117 5.33496 -4.93555 7.68066 -7.67969c0.429688 -0.501953 0.870117 -0.74707 1.2793 -1.28027
c1.42383 -1.79199 2.66211 -3.79395 3.83984 -5.75977c0.891602 -1.49512 1.82324 -3.20215 2.56055 -4.7998c0.491211 -1.04492 1.17969 -2.125 1.59961 -3.2002c0.962891 -2.5293 1.64648 -4.95605 2.24023 -7.67969
c0.132812 -0.645508 0.197266 -1.26465 0.320312 -1.91992c0.552734 -3.12305 0.959961 -6.29297 0.959961 -9.60059v-69.7598h-450.561v69.7598c0 3.30762 0.397461 6.47754 0.959961 9.60059c0.123047 0.655273 0.176758 1.27441 0.320312 1.91992
c0.583984 2.72363 1.58691 5.15039 2.55957 7.67969c0.430664 1.08594 0.789062 2.15527 1.28027 3.2002c0.737305 1.59766 1.66895 3.30469 2.56055 4.7998c1.17676 1.97656 2.42676 3.96777 3.83984 5.75977c0.40918 0.522461 0.849609 0.768555 1.2793 1.28027
c2.35547 2.73438 4.82324 5.46875 7.68066 7.67969c2.06836 1.6084 4.42578 2.84961 6.71973 4.16016c0.460938 0.246094 0.808594 0.714844 1.28027 0.959961c1.98633 1.05469 3.93945 1.76172 6.08008 2.56055c1.24902 0.450195 2.5498 0.911133 3.83984 1.2793
c1.61816 0.460938 3.43066 0.962891 5.12012 1.28027c3.18457 0.573242 6.20996 0.959961 9.59961 0.959961h9.60059l4.15918 32.96l5.76074 41.9199l7.35938 56.6406c2.05859 35.2666 85.4785 40.6396 135.04 40.6396zM245.76 333.44
c-93.2246 0 -114.304 -17.6973 -114.56 -22.0801l-10.5605 -79.6807c15.1455 -2.58008 60.1787 -8.95996 135.36 -8.95996s120.205 6.38965 135.36 8.95996l-10.2402 78.7207c-3.87109 7.70996 -49.0576 23.04 -135.36 23.04zM42.8799 315.84h16.6396
c12.4521 0 23.3604 -11.6455 23.3604 -24.6396v-56.3203c-0.00976562 -12.4619 -11.6348 -23.3604 -24.6396 -23.3604h-15.3604c-12.4521 0 -23.3604 11.6455 -23.3604 24.6406v56.3203c0 12.2363 11.1133 23.3594 23.3604 23.3594zM453.76 314.56h15.3604
c12.8916 0 23.3604 -10.4678 23.3604 -23.3594v-56.3203c0 -12.2471 -11.124 -23.3604 -23.3604 -23.3604h-15.3604c-12.8916 0 -23.3594 10.458 -23.3594 23.3604v56.3203c0 12.8916 10.4678 23.3594 23.3594 23.3594zM200.64 171.52
c-7.02441 0 -12.6641 -4.17773 -15.04 -10.2393c-0.737305 -1.89453 -1.2793 -3.88867 -1.2793 -6.08008v-49.2803c0 -9.21582 7.10352 -16.3203 16.3193 -16.3203h110.721c9.21582 0 16.3193 7.11426 16.3193 16.3203v49.2803c0 2.19141 -0.532227 4.18555 -1.2793 6.08008
c-2.37598 6.06152 -8.01562 10.2393 -15.04 10.2393h-110.721zM88.96 130.56c-4.0957 0 -7.04004 -2.94336 -7.04004 -7.04004v-26.8799c0 -4.0957 2.94434 -7.04004 7.04004 -7.04004h47.3604c4.0957 0 7.04004 2.94434 7.04004 7.04004v26.8799
c0 4.09668 -2.94434 7.04004 -7.04004 7.04004h-47.3604zM375.68 130.56c-4.0957 0 -7.04004 -2.94336 -7.04004 -7.04004v-26.8799c0 -4.0957 2.94434 -7.04004 7.04004 -7.04004h47.3604c4.0957 0 7.04004 2.94434 7.04004 7.04004v26.8799
c0 4.09668 -2.94434 7.04004 -7.04004 7.04004h-47.3604zM30.7197 38.4004h450.561v-51.2002h-450.561v51.2002zM30.7197 -33.2803h102.4c0 -16.9365 -13.7832 -30.7197 -30.7197 -30.7197h-40.96c-16.9375 0 -30.7207 13.7832 -30.7207 30.7197zM378.88 -33.2803h102.4
c0 -16.9365 -13.7832 -30.7197 -30.7207 -30.7197h-40.96c-16.9365 0 -30.7197 13.7832 -30.7197 30.7197z" />
    <glyph glyph-name="zuhause" unicode="&#xf11b;" 
d="M256 437.24c2.22754 0 4.44531 -0.707031 6.33984 -2.14062l235.521 -183.819c4.40332 -3.48145 5.22168 -9.91504 1.73926 -14.4199c-2.04785 -2.56055 -5.00781 -3.90039 -8.08008 -3.90039c-2.25195 0 -4.39355 0.726562 -6.33984 2.16016l-14.1396 11.04v-269.2
c0 -5.63184 -4.6084 -10.2402 -10.2402 -10.2402h-143.359v184.32h-122.881v-184.32h-143.359c-5.63184 0 -10.2402 4.6084 -10.2402 10.2402v269.2l-14.1396 -11.04c-4.50586 -3.48145 -10.9385 -2.66309 -14.4199 1.74023
c-3.48242 4.50488 -2.66406 10.9385 1.73926 14.4199l235.521 183.819c1.89453 1.43359 4.1123 2.14062 6.33984 2.14062zM358.4 396.8h61.4395v-58.6797l-61.4395 47.9199v10.7598z" />
    <glyph glyph-name="pdf" unicode="&#xf104;" 
d="M71.6797 427.52h227.16l141.48 -137.319v-323.48v-10.2393h-368.641v471.039zM92.1602 407.04v-430.08h327.68v296.96h-133.12v133.12h-194.56zM307.2 390.86v-96.46h99.3994zM243.42 244.48c4.58984 0 9.48828 -1.66309 12.9805 -4.7207
c3.49121 -3.05664 5.49512 -6.99512 6.67969 -10.9199c2.36816 -7.84863 2.08008 -16.416 0.759766 -26.2002c-0.957031 -7.09473 -5.21289 -16.4668 -7.35938 -24.5596c0.526367 -0.938477 0.428711 -1.54102 0.979492 -2.48047
c8.86719 -15.1035 20.8047 -30.3086 33.5801 -41.3193c0.822266 -0.708984 1.65332 -0.989258 2.47949 -1.66016c6.28418 1.19531 13.8223 4.16699 19.4805 4.75977c10.6758 1.11816 19.9521 1.24316 28.1396 -0.959961c4.09473 -1.10156 8.11816 -2.84863 11.4805 -6.17969
s5.5 -8.46973 5.5 -13.3203c0 -5.95312 -3.6084 -13.752 -9.58008 -17c-5.97168 -3.24707 -12.1025 -3.58008 -20.0205 -3.58008c-13.9805 0 -26.7832 6.28125 -38.8398 14.4199c-14.3916 -3.1377 -28.1133 -5.35742 -43.5195 -10.6797
c-11.3994 -3.93848 -18.5391 -8.50488 -28.5605 -12.96c-3.10547 -4.99512 -5.62305 -11.9268 -8.7998 -16.2002c-6.27246 -8.43848 -12.5088 -15.3486 -19.5195 -20.0801c-7.00586 -4.72754 -16.6982 -7.46484 -25.0801 -3.05957
c-3.96191 2.06641 -7.79102 5.2334 -9.64062 10.0596c-1.85645 4.84668 -0.897461 10.1855 0.980469 13.96c3.75488 7.5498 10.1357 12.3369 18.2197 17.6406c7.19922 4.72168 19.5039 8.80176 29.2598 13.3594c7.50684 12.6777 15.3008 24.7793 21.6602 40
c4.99219 11.9482 6.59766 21.7148 9.91992 32.9404c-6.68359 13.1211 -11.8389 25.9961 -13.1992 37.3398c-0.864258 7.19629 -0.660156 14.1328 2.85938 20.5801c3.51953 6.44629 11.4561 10.8203 19.1602 10.8203zM242.56 224.08
c-0.134766 0.00683594 -0.237305 -0.0527344 -0.339844 -0.240234c-0.291992 -0.535156 -1.05273 -3.54785 -0.479492 -8.32031c0.129883 -1.08008 1.53516 -3.30078 1.7793 -4.51953c0.189453 4.7168 0.526367 10.0449 -0.0390625 11.9199
c-0.304688 1.00879 -0.380859 0.976562 -0.420898 1.04004c-0.197266 0.0390625 -0.364258 0.113281 -0.5 0.120117zM248.76 152.24c-2.2041 -6.08203 -2.64551 -11.2266 -5.2002 -17.3398c-2.81934 -6.74805 -6.68359 -11.5654 -9.81934 -18.0801
c2.20117 0.794922 3.51172 1.84961 5.74023 2.62012c10.5596 3.64746 19.9414 4.62305 30.4395 7.41992c-7.83496 7.82812 -14.8545 16.2852 -21.1602 25.3799z" />
    <glyph glyph-name="weihnachtsstern" unicode="&#xf121;" 
d="M406.48 -35.5996c-1.88086 0 -3.80078 0.519531 -5.44043 1.59961l-145.04 91.04l-145.04 -91.04c-3.51953 -2.24023 -8.08008 -2.08008 -11.4404 0.360352c-3.39941 2.43945 -4.95996 6.71973 -3.91992 10.7998l41.7607 166.04l-131.4 109.8
c-3.2002 2.67969 -4.44043 7.04004 -3.16016 11.04c1.28027 3.95996 4.87988 6.75977 9.04004 7.04004l170.84 11.5996l63.8008 158.88c1.55957 3.88086 5.35938 6.44043 9.51953 6.44043s7.95996 -2.55957 9.51953 -6.44043l63.8008 -158.88l170.84 -11.5996
c4.16016 -0.280273 7.75977 -3.08008 9.04004 -7.04004c1.28027 -4 0.0400391 -8.32031 -3.16016 -11.04l-131.4 -109.8l41.7607 -166.04c1.04004 -4.08008 -0.520508 -8.32031 -3.91992 -10.7998c-1.76074 -1.28027 -3.88086 -1.95996 -6 -1.95996z" />
  </font>
</defs>
</svg>
