<?xml version="1.0" encoding="utf-8"?>
<!-- Generator: Adobe Illustrator 23.0.1, SVG Export Plug-In . SVG Version: 6.00 Build 0)  -->
<svg version="1.1" id="Ebene_1" xmlns:sketch="http://www.bohemiancoding.com/sketch/ns"
	 xmlns="http://www.w3.org/2000/svg" xmlns:xlink="http://www.w3.org/1999/xlink" x="0px" y="0px" viewBox="0 0 209.6 71"
	 style="enable-background:new 0 0 209.6 71;" xml:space="preserve">
<style type="text/css">
	.st0{fill:#FFFFFF;}
	.st1{fill:#C6C6C5;}
	.st2{fill:#004F9E;}
</style>
<g>
	<path class="st0" d="M13,20.4L8,34.1h-8.3L7,13.9h10.7c2.5,0,3.2,1.4,3.1,3.9l-0.3,6l6.1-9.9h14.9l-7.3,20.2h-9.8l4.9-13.3
		l-8.9,13.3h-8.1L13,20.4z"/>
	<path class="st0" d="M39.9,34.1l7.3-20.2H57l-7.3,20.2H39.9z"/>
	<path class="st0" d="M74.7,19.5c-3.5,0-5.9,0.9-7.2,4.5c-1.2,3.4,0.6,4.4,4.6,4.4c2.1,0,4.8-0.4,6.2-0.7L76,34
		c-2.3,0.5-4.5,0.6-6.8,0.6c-10.5,0-13.8-4.7-11-12.3c2.5-7,8.7-8.9,16-8.9c3.2,0,6.3,0.5,8.7,1.4l-2.1,6
		C79.4,20.1,76.7,19.5,74.7,19.5z"/>
	<path class="st0" d="M98.1,27h-4.7l-2.6,7.1H81l7.3-20.2h9.8L95.5,21h4.7l2.6-7.1h9.8l-7.3,20.2h-9.8L98.1,27z"/>
	<path class="st0" d="M118.3,13.9h20.5l-2,5.5H126l-0.7,1.8h9.7l-2.1,5.5h-9.6l-0.7,1.9h10.8l-2,5.5H111L118.3,13.9z"/>
	<path class="st0" d="M143.9,13.9h9.8l-5.1,14.1h9.3l-2.2,6.1h-19.1L143.9,13.9z"/>
	<path class="st0" d="M160.1,34.1l7.3-20.2h9.8l-7.3,20.2H160.1z"/>
	<path class="st0" d="M188.7,20.5l-5,13.6h-8.3l7.3-20.2h10.8c2.4,0,3.2,1.5,3,3.7l-0.5,10.1l5-13.8h8.3l-7.3,20.2h-14L188.7,20.5z"
		/>
</g>
<g>
	<g>
		<path class="st1" d="M85.9,44.2h9l0.8,6l5.5-6h8.3L99,54.2l3.6,10.5h-9.1l-1.3-6.9l-6.1,6.9h-8.5l11.1-10.5L85.9,44.2z"/>
		<path class="st1" d="M110.7,49.4h6.9l-1,2.8h0.1c1.8-2.3,3.6-3.1,6.1-3.1c4.9,0,5.3,3.8,3.7,8.2c-1.5,4.1-4.7,7.8-9.3,7.8
			c-2,0-3.2-0.7-3.7-2.3h-0.1l-3,8.1h-7.4L110.7,49.4z M115.8,60.5c1.5,0,2.4-1.5,3-3.2c0.6-1.6,0.9-3.3-0.7-3.3
			c-1.6,0-2.4,1.7-3,3.1C114.5,58.9,114.1,60.5,115.8,60.5z"/>
		<path class="st1" d="M135.7,58.8c-0.6,1.9,1.1,2.3,3.2,2.3c2,0,4-0.4,5.4-0.9l-1.4,4c-2.2,0.6-4.6,0.9-7.2,0.9
			c-6.2,0-8.4-3-6.4-8.3c1.8-5.1,6.1-7.7,12.3-7.7c5.9,0,6.6,3.7,4.8,8.9l-0.3,0.9H135.7z M140.7,55.6c0.4-1.2,0.9-3-0.7-3
			c-1.7,0-2.7,1.8-3.1,3H140.7z"/>
		<path class="st1" d="M159.6,49.4l-1.3,3.5h0.1c1.7-2.2,3.7-3.8,6.1-3.8c0.4,0,0.9,0.1,1.2,0.2l-2.2,6.1c-0.3-0.2-0.9-0.2-1.6-0.2
			c-2.1,0-4.4,1.8-5.3,4.1l-2,5.5h-7.4l5.5-15.3h6.9V49.4z"/>
		<path class="st1" d="M170,49.4l1.3-3.5l8.2-2.3l-2.1,5.8h3.3l-1.6,4.4h-3.3l-1.6,4.3c-0.5,1.3-0.1,2,0.9,2c0.7,0,1.2-0.1,1.8-0.3
			l-1.6,4.4c-1.8,0.5-3.5,0.8-5.4,0.8c-3.8,0-5-1.9-3.5-6l1.9-5.3h-2.6l1.6-4.4L170,49.4L170,49.4z"/>
		<path class="st1" d="M179.6,59.8c1.1,0.8,3,1.4,4.9,1.4c1.2,0,2.8-0.2,3.1-1c0.7-1.9-8.5-0.1-6.4-6c1.6-4.4,6.8-5.2,10.4-5.2
			c1.8,0,3.6,0.3,5.3,0.6l-1.5,4.1c-1.4-0.5-2.8-0.9-4.5-0.9c-1.3,0-2.6,0.1-3,1.1c-0.6,1.6,8.7-0.2,6.5,5.5
			c-1.6,4.4-7,5.5-10.5,5.5c-2.2,0-4.2-0.4-6.1-0.9L179.6,59.8z"/>
	</g>
</g>
<polygon class="st0" points="73.8,64.6 85.8,53.4 83.2,44.2 78.5,44.2 71,64.6 "/>
<g>
	<path class="st2" d="M77.3,44.3"/>
</g>
</svg>
