<?xml version="1.0" encoding="UTF-8"?>
<svg id="Layer_2" data-name="Layer 2" xmlns="http://www.w3.org/2000/svg" viewBox="0 0 369 307.05">
  <defs>
    <style>
      .cls-1 {
        fill: #5b7bbb;
      }
    </style>
  </defs>
  <g id="Ebene_2" data-name="Ebene 2">
    <g>
      <path class="cls-1" d="M213.99,266.81l-2.08-16.01v-21.15l2.41-14.45,.19-1.14,5.21-4.79,3.66,4.73,1.03,1.33,2.08,16.01v21.14l-2.61,15.59-5.21,4.79-4.69-6.06Zm-73.1-90.9l65.94,5.6-15.8,15.9-50.16,.27,.02-21.76ZM204.13,42.73l-1.42-14,35.73,13.88v56.77l-31.61-7.98L63.22,115.42l29.29-51.52,111.13-21.08v.16s.49-.25,.49-.25ZM244.63,0l-103.76,19.8-63.22,35.51-14.43,60.11-52.22,13.75v57.24l24.74-4.39v16.22l-24.74,.13-10.99,.06v75.64l2.75,9.73,19.24,23.25H63.22l-.03-.06,.05,.06,13.74-12.65,3.4-20.34h74.23l2.75,9.73,19.24,23.25h41.23l13.74-12.65,3.4-20.34h25.46V16.6L244.63,0Z"/>
      <path class="cls-1" d="M332.71,268.98l-1.21-9.25v-12.22l1.4-8.35,.11-.66,3.01-2.77,2.11,2.73,.59,.77,1.2,9.26v12.22l-1.51,9.01-3.01,2.77-2.71-3.5Zm-56.48,5.08h22.41l1.34,4.74,11.12,13.44h23.83l7.94-7.31,1.82-10.87h24.31V145l-92.77-98.96v228.02Z"/>
    </g>
  </g>
</svg>