<?xml version="1.0" encoding="UTF-8"?>
<svg id="Layer_2" data-name="Layer 2" xmlns="http://www.w3.org/2000/svg" viewBox="0 0 472.5 472.5">
  <defs>
    <style>
      .cls-1 {
        fill: #fff;
      }

      .cls-2 {
        fill: #0c54a0;
      }

      .cls-3 {
        fill: #9f9f9e;
      }
    </style>
  </defs>
  <g id="Ebene_1" data-name="Ebene 1">
    <g>
      <path class="cls-1" d="M236.25,472.5c130.48,0,236.25-105.77,236.25-236.25S366.73,0,236.25,0,0,105.77,0,236.25s105.77,236.25,236.25,236.25"/>
      <path class="cls-3" d="M456.37,236.43c.53,101.93-70.38,190.83-170.49,213.46-62.52,14.14-120.59,3.74-173.93-32.05-10.69-7.17-10.62-8.02-2.57-17.56,43.56-51.59,86.98-103.29,130.5-154.91,3.73-4.43,5.26-9.19,4.42-15.02-5.72-39.61-11.34-79.23-16.9-118.85-3.91-27.84-7.47-55.72-11.62-83.52-1.18-7.92,.86-10.86,9.17-11.22,62.98-2.66,117.64,17.36,163.2,60.63,45.36,43.08,67.61,96.58,68.22,159.05"/>
      <path class="cls-3" d="M16.13,241.34c.51-57.92,18.19-104.54,50.73-145.89,4.79-6.08,8.8-7.01,14.65-1.09,34.04,34.49,68.26,68.8,102.51,103.07,10.79,10.8,21.66,21.53,32.89,31.86,5.23,4.82,6.14,8.21,1.04,14.15-23.85,27.76-47.21,55.95-70.73,84-16.98,20.25-33.95,40.52-50.93,60.78-8.12,9.69-9.38,9.86-17.97,.73-40.35-42.89-60.74-93.92-62.19-147.62"/>
      <path class="cls-2" d="M222.42,204.46c.05-.42,.82,1.75-1.21,2.38-2.84,.88-4.15-1.79-5.73-3.36-23.58-23.46-47.11-46.97-70.64-70.48-16.81-16.79-33.42-33.79-50.48-50.32-5.76-5.58-5.99-9.7,.16-14.92,27.69-23.51,59.08-39.29,94.79-46.51,6.57-1.33,8.19,1.34,9.02,7.19,7.15,50.62,14.58,101.2,21.8,151.81,1.05,7.36,1.43,14.82,2.3,24.2"/>
    </g>
  </g>
</svg>