<?xml version="1.0" encoding="UTF-8"?>
<svg id="Layer_2" data-name="Layer 2" xmlns="http://www.w3.org/2000/svg" viewBox="0 0 212.54 248.83">
  <defs>
    <style>
      .cls-1 {
        fill: #ffe500;
      }
    </style>
  </defs>
  <g id="Ebene_2" data-name="Ebene 2">
    <g>
      <g>
        <path d="M116.12,248.83h-45.62C31.62,248.83,0,193.36,0,124.42S31.62,0,71.02,0h45.62c-26.44,19.18-45.62,67.91-45.62,124.42s18.66,105.24,45.1,124.42"/>
        <path d="M138.93,200.62c-23.85,0-43.55-34.21-43.55-76.21s19.7-76.21,43.55-76.21,43.55,34.21,43.55,76.21-19.7,76.21-43.55,76.21M141.52,0c-38.88,0-71.02,55.47-71.02,124.42s31.62,124.42,71.02,124.42,71.02-55.99,71.02-124.42S180.92,0,141.52,0"/>
        <path d="M175.74,124.42c0,38.88-18.14,71.02-40.43,71.02-7.26,0-14-3.63-20.22-9.33,11.92-12.44,20.22-35.25,20.22-61.17s-8.29-49.25-20.22-61.17c5.7-6.22,12.96-9.33,20.22-9.33,22.81-1.04,40.43,31.1,40.43,69.98"/>
      </g>
      <path class="cls-1" d="M33.28,96.13h40.24c14.96,0,19.84,8.08,16.56,17.36-2.48,6.88-8.4,10.8-16.4,11.68,8.4,1.44,12.16,8.24,9.12,16.48-3.12,8.48-10.32,12.08-24.88,12.08H12.32l20.96-57.6Zm10.24,34l-3.76,10.32h13.6c5.04,0,7.52-.88,8.72-4.08,1.36-3.92-.32-6.24-5.92-6.24h-12.64Zm7.6-20.72l-3.6,9.84h10.24c5.36,0,7.92-1.2,9.12-4.56,1.2-3.28,.08-5.28-4.96-5.28h-10.8Z"/>
    </g>
  </g>
</svg>