<?xml version="1.0" encoding="UTF-8"?>
<svg id="Layer_2" data-name="Layer 2" xmlns="http://www.w3.org/2000/svg" viewBox="0 0 770.47 410.4">
  <defs>
    <style>
      .cls-1 {
        fill: #0c54a0;
      }
    </style>
  </defs>
  <g id="Ebene_1" data-name="Ebene 1">
    <g>
      <path class="cls-1" d="M229.14,330.89c-39.33,0-71.82-56.43-71.82-125.68s32.49-125.68,71.82-125.68,71.82,56.43,71.82,125.68-32.49,125.68-71.82,125.68M233.41,0c-64.12,0-117.14,91.48-117.14,205.2s52.16,205.2,117.14,205.2,117.14-92.34,117.14-205.2S298.39,0,233.41,0"/>
      <g>
        <path class="cls-1" d="M743.74,151.76h-13.36c-7.36-.02-13.34-5.99-13.36-13.36v-34.47l14.96,14.96c7.51,7.52,11.76,17.7,11.76,28.32v4.54Zm-187.03,160.31c0,7.38-5.98,13.36-13.36,13.36s-13.36-5.98-13.36-13.36v-80.16c0-7.38,5.98-13.36,13.36-13.36s13.36,5.98,13.36,13.36v80.16Zm194.25-212.15l-64.53-64.53c-5.24-5.21-13.71-5.18-18.94,.03-5.21,5.23-5.24,13.69-.03,18.94l22.84,22.84v61.18c.07,22.11,17.97,40.01,40.08,40.08h13.36v146.95c0,14.76-11.96,26.72-26.72,26.72s-26.72-11.96-26.72-26.72v-40.08c0-14.18-5.63-27.77-15.65-37.79-10.02-10.02-23.61-15.65-37.79-15.65h-26.72v-53.44h-213.75v200.39h-13.36c-7.38,0-13.36,5.98-13.36,13.36s5.98,13.36,13.36,13.36h240.47c7.38,0,13.36-5.98,13.36-13.36s-5.98-13.36-13.36-13.36h-13.36v-120.23h26.72c14.74,.05,26.67,11.97,26.72,26.72v40.08c0,29.51,23.93,53.44,53.44,53.44s53.44-23.93,53.44-53.44V147.22c.03-17.73-6.98-34.75-19.51-47.29h0Zm-207.6-1.6h-80.16c-7.38,0-13.36-5.98-13.36-13.36s5.98-13.36,13.36-13.36h80.16c7.38,0,13.36,5.98,13.36,13.36s-5.98,13.36-13.36,13.36m66.8-53.44c-.07-22.11-17.97-40.01-40.08-40.08h-133.59c-22.11,.07-40.01,17.97-40.08,40.08v106.88h213.75V44.89Z"/>
        <path class="cls-1" d="M191.52,410.4H116.28C52.16,410.4,0,318.92,0,205.2S52.16,0,117.14,0h75.24c-43.6,31.64-75.24,112.01-75.24,205.2s30.78,173.57,74.39,205.2"/>
        <path class="cls-1" d="M289.84,205.2c0,64.12-29.93,117.14-66.69,117.14-11.97,0-23.08-5.98-33.34-15.39,19.67-20.52,33.34-58.14,33.34-100.89s-13.68-81.23-33.34-100.89c9.41-10.26,21.38-15.39,33.34-15.39,37.62-1.71,66.69,51.3,66.69,115.42"/>
      </g>
    </g>
  </g>
</svg>